<mxfile host="app.diagrams.net" modified="2024-01-29T05:12:03.876Z" agent="Mozilla/5.0 (Windows NT 10.0; Win64; x64) AppleWebKit/537.36 (KHTML, like Gecko) Chrome/121.0.0.0 Safari/537.36 Edg/121.0.0.0" version="23.0.2" etag="gHGEBOpDqwLekPtW1Ctz" type="github">
  <diagram name="第 1 页" id="ZeQX5R6M6B2Gx7_0g9Ae">
    <mxGraphModel>
      <root>
        <mxCell id="0" />
        <mxCell id="1" parent="0" />
      </root>
    </mxGraphModel>
  </diagram>
</mxfile>
